<svg xmlns="http://www.w3.org/2000/svg" width="1200" height="600" viewBox="0 0 1200 600" role="img" aria-label="Abstract background">
  <defs>
    <linearGradient id="g" x1="0" y1="0" x2="1" y2="1">
      <stop offset="0" stop-color="#ffffff" stop-opacity="0.22" />
      <stop offset="1" stop-color="#ffffff" stop-opacity="0.06" />
    </linearGradient>
  </defs>
  <rect width="1200" height="600" fill="none" />
  <g fill="none" stroke="url(#g)" stroke-width="1">
    <path d="M-50 520 C 200 420, 320 620, 560 520 S 980 420, 1250 520" />
    <path d="M-50 440 C 220 340, 340 540, 600 440 S 1000 340, 1250 440" />
    <path d="M-50 360 C 240 260, 360 460, 640 360 S 1020 260, 1250 360" />
    <path d="M-50 280 C 260 180, 380 380, 680 280 S 1040 180, 1250 280" />
    <path d="M-50 200 C 280 100, 400 300, 720 200 S 1060 100, 1250 200" />
  </g>
</svg>
